<?xml version="1.0" encoding="utf-8"?>
<!-- Generator: Adobe Illustrator 16.0.0, SVG Export Plug-In . SVG Version: 6.00 Build 0)  -->
<!DOCTYPE svg PUBLIC "-//W3C//DTD SVG 1.1//EN" "http://www.w3.org/Graphics/SVG/1.1/DTD/svg11.dtd">
<svg version="1.1" id="Layer_1" xmlns="http://www.w3.org/2000/svg" xmlns:xlink="http://www.w3.org/1999/xlink" x="0px" y="0px"
	 width="850px" height="850px" viewBox="0 0 850 850" enable-background="new 0 0 850 850" xml:space="preserve">
<g>
	<g>
		<path fill-rule="evenodd" clip-rule="evenodd" fill="#BC161F" d="M819.654,268.704C758.765,114.027,620.252-2.958,400.943,0.057
			c-13.291,1.399-26.585,2.798-39.877,4.197c-29.706,6.256-58.748,11.755-85.001,22.038
			C154.88,73.756,66.512,165.415,23.159,290.742C6.765,338.129-4.661,411.307,6.368,473.338
			c31.427,176.758,118.49,284.172,265.499,344.203c44.805,18.295,112.76,39.877,181.546,29.385
			c192.115-29.307,296.532-110.746,365.192-262.352C859.436,494.416,855.383,359.461,819.654,268.704z M811.26,564.635
			c-46.273,126.24-144.813,215.402-278.092,255.006c-28.878,8.58-60.08,8.541-93.396,13.643
			c-58.384,8.939-137.066-17.742-174.201-33.582C153.224,751.781,81.842,668.502,36.8,553.092
			c-13.693-35.086-12.217-70.59-18.889-114.385c-7.796-51.173,6.041-109.838,19.938-147.965
			C81.959,169.728,168.428,81.66,288.657,36.786c26.058-9.725,55.146-14.822,85.002-19.939c15.389-1.049,30.784-2.099,46.173-3.148
			c203.885,1.611,325.036,113.668,386.18,259.203C839.771,353.251,842.699,478.863,811.26,564.635z M788.173,278.149
			C732.952,138.342,603.863,29.366,405.141,32.588c-13.991,1.398-27.986,2.799-41.976,4.198
			c-21.336,5.246-42.678,10.494-64.014,15.741C184.714,94.229,102.852,175.388,58.838,287.593
			c-17.913,45.666-32.219,120.009-19.939,182.596c4.875,24.848,5.764,45.469,12.593,67.162
			C88.607,655.24,167.365,737.215,276.064,783.961c39.232,16.871,112.585,40.887,175.25,30.432
			c24.483-3.846,48.976-7.695,73.458-11.543c124.69-37.459,213.726-114.494,262.351-227.719
			C825.009,486.91,823.17,366.755,788.173,278.149z M790.271,309.63c9.906,11.157,12.827,42.318,14.691,59.816
			c-4.197,0.699-8.396,1.399-12.592,2.099c-3.849-16.09-7.697-32.183-11.545-48.272c-6.995,2.099-13.992,4.197-20.987,6.296
			c-1.05,0.35-2.099,0.699-3.147,1.049c1.747,6.995,3.498,13.992,5.246,20.988c1.748-0.35,3.5-0.699,5.247-1.049
			c3.252-3.557,0.841-10.025-1.05-14.691v-1.05c3.148-0.699,6.297-1.399,9.445-2.099c2.1,9.443,4.197,18.89,6.296,28.334v5.247
			c-8.744,1.399-17.491,2.799-26.235,4.197h-1.049c-3.498-15.39-6.996-30.784-10.495-46.174
			C759.487,319.425,774.882,314.527,790.271,309.63z M229.891,349.508c-0.35-4.198-0.699-8.396-1.049-12.594h432.354v12.594H229.891
			z M613.973,356.854v275.994c-8.396,6.293-16.792,12.592-25.187,18.889c-1.05,1.049-2.099,2.1-3.147,3.148
			c-0.351-99.334-0.7-198.697-1.049-298.031H613.973z M577.243,356.854v303.277c-49.246,33.494-132.613,57.623-211.98,38.828
			c-19.586-6.645-39.179-13.293-58.766-19.939c0.35-107.377,0.699-214.787,1.049-322.166H577.243z M300.201,356.854v316.919
			c-6.939-0.084-22.182-8.732-27.284-14.691c-5.467-6.307-2.099-64.813-2.099-78.705V356.854H300.201z M314.892,284.445h-57.717
			v-8.395h57.717V284.445z M322.238,291.791V276.05h90.249v53.52h-104.94v-37.779H322.238z M270.817,291.791h29.383v36.729
			c-9.793,0.35-19.59,0.7-29.383,1.049V291.791z M419.833,328.52v-59.816h39.877c-0.351,19.237-0.7,38.479-1.05,57.717v2.099
			H419.833z M577.243,291.791v37.779H467.056v-53.52c31.479-0.35,62.968-0.699,94.446-1.049c2.086,3.524,2.377,9.361,2.1,15.741
			C568.147,291.091,572.695,291.44,577.243,291.791z M570.947,284.445v-8.395h57.717v8.395H570.947z M613.973,291.791v37.779H584.59
			v-37.779H613.973z M621.318,356.854h46.173c0.35-9.095,0.7-18.19,1.05-27.285h-47.223v-37.779h14.691V276.05h20.988
			c1.747-2.099,3.498-4.198,5.246-6.297c70.31,115.34,51.818,276.94-40.926,355.749V356.854z M659.096,258.21
			c-1.748,3.498-3.498,6.997-5.247,10.494H467.056v-7.346h-54.569v7.346H222.545c-2.448-4.197-4.898-8.396-7.346-12.593
			c147.951,0.35,295.946,0.7,443.897,1.05V258.21z M217.298,273.951c4.747,4.423,23.871,2.461,32.532,2.099v15.741h13.642v37.779
			h-41.976v26.235c13.99,0.35,27.986,0.7,41.976,1.05v295.931c-72.567-39.27-143.959-169.527-113.335-291.734
			c6.273-25.036,14.419-50.771,26.235-71.359c7.345-11.542,14.692-23.088,22.038-34.63c1.049-0.699,2.099-1.399,3.148-2.099
			C209.518,258.438,210.899,267.171,217.298,273.951z M149.087,498.523c28.948,104.705,104.849,175.291,211.979,202.535
			c18.896,4.805,47.461,11.617,72.409,8.395c34.975-4.52,71.349-8.799,100.742-20.988
			c100.907-41.846,210.526-169.441,171.053-328.463c-9.227-37.174-25.771-65.662-40.926-95.495c2.099-2.798,4.197-5.597,6.297-8.396
			c3.147-0.7,6.295-1.399,9.443-2.099c16.548,30.4,33.363,60.327,43.025,98.644c41.571,164.872-60.291,285.668-156.36,340.006
			c-33.122,18.734-102.186,45.531-160.559,35.68c-36.576-6.172-69.337-10.482-98.644-23.086
			c-113.524-48.824-226.29-189.357-176.299-365.192c10.629-37.389,28.934-67.271,47.223-96.545
			c5.596,2.448,11.193,4.897,16.791,7.346c0.35,0.699,0.7,1.399,1.049,2.098C149.482,290.907,127.511,420.483,149.087,498.523z
			 M130.198,517.412c35.771,106.498,112.745,177.824,226.671,206.732c29.16,7.398,74.209,12.992,110.187,6.297
			C603.128,705.113,691.83,625.33,725.208,497.475c8.633-33.064,14.436-84.961,6.297-124.88
			c-6.301-30.905-14.448-60.897-27.284-86.05c-6.646-11.892-13.293-23.788-19.939-35.68c3.848-2.099,7.697-4.198,11.544-6.297h1.05
			c17.614,27.57,32.684,58.404,43.025,93.397c52.107,176.299-62.106,324.137-171.053,376.735
			c-35.767,17.27-102.061,43.5-161.608,33.582c-153.801-25.617-232.488-84.139-284.388-210.93
			c-20.081-49.059-30.178-135.631-11.543-196.239c13.1-42.603,31.169-77.598,53.52-110.187c3.498,3.498,6.996,6.996,10.494,10.494
			C125.611,297.105,98.125,421.928,130.198,517.412z M715.764,224.629c1.748-2.798,3.499-5.597,5.248-8.396
			c5.597,8.395,11.193,16.792,16.79,25.186c-8.044,4.547-16.091,9.095-24.136,13.642c-3.149-5.246-6.297-10.495-9.445-15.741
			c5.04-6.868,5.824-5.417,13.643-6.296C719.41,228.64,718.547,229.252,715.764,224.629z M788.173,301.235
			c-4.547,1.05-9.095,2.1-13.643,3.149c-5.596-14.34-11.193-28.685-16.79-43.026c-7.678-0.723-15.227,5.75-23.087,8.395
			c2.797,6.996,5.597,13.993,8.396,20.989c2.447-0.7,4.897-1.4,7.346-2.1c-1.748-5.246-3.499-10.495-5.247-15.74
			c2.798-0.7,5.597-1.4,8.395-2.1c3.849,10.493,7.696,20.989,11.544,31.482c-8.744,2.798-17.492,5.597-26.235,8.396
			c-6.295-14.34-12.594-28.686-18.89-43.025c14.341-7.695,28.687-15.393,43.025-23.087
			C774.158,252.525,786.029,285.505,788.173,301.235z M730.455,193.147c12.761,8.196,19.064,27.95,28.334,39.877
			c0.35,1.049,0.7,2.098,1.05,3.148c-4.198,2.099-8.396,4.198-12.593,6.297c-7.345-11.193-14.692-22.389-22.038-33.582
			C726.957,203.642,728.707,198.393,730.455,193.147z M577.243,249.815c-89.89-0.7-179.807-1.4-269.697-2.099
			c-78.988,0.002-136.419,12.026-154.262-54.569c62.881,20.132,147.32,17.844,231.918,17.84c60.159-0.35,120.338-0.7,180.497-1.05
			c34.868-0.206,70.611,3.794,102.842-2.099c17.838-4.547,35.682-9.095,53.52-13.642
			C713.308,255.201,647.931,249.853,577.243,249.815z M155.383,184.751c3.147-3.498,6.296-6.996,9.444-10.494
			c6.995,6.296,13.992,12.594,20.988,18.89c-5.396,3.634-21.754-4.117-29.383-6.296
			C156.083,186.151,155.733,185.451,155.383,184.751z M357.917,143.825c-30.453,8.321-59.734,20.523-83.952,35.68
			c-10.143,7.694-20.29,15.392-30.433,23.086c-8.744-0.699-17.491-1.399-26.235-2.099c26.533-34.699,82.111-60.061,129.077-73.458
			c18.538-3.148,37.081-6.297,55.618-9.444c77.833,0.701,131.451,12.713,179.448,41.976c15.39,11.193,30.784,22.388,46.175,33.581
			c2.796,3.148,5.597,6.296,8.395,9.444c-8.744,0.35-17.492,0.7-26.235,1.05C550.671,162.332,463.94,114.852,357.917,143.825z
			 M601.378,203.641H249.83v-2.099c25.566-11.026,47.235-31.855,75.557-43.025c18.188-4.896,36.381-9.796,54.569-14.692
			c10.493-1.049,20.989-2.099,31.482-3.148c55.833,0.13,102.046,8.174,138.522,28.333c15.738,9.794,31.483,19.59,47.223,29.383
			C598.581,200.143,599.981,201.892,601.378,203.641z M718.912,177.406c-2.449,2.099-4.897,4.197-7.346,6.296
			c-1.05,1.049-2.099,2.099-3.148,3.148c-11.193-11.542-22.387-23.088-33.581-34.63c-3.147,3.498-6.296,6.996-9.444,10.494
			c-2.448,2.449-4.897,4.898-7.346,7.346c4.896,4.896,9.795,9.795,14.69,14.691h3.149c1.049-1.398,2.1-2.799,3.148-4.197
			c-2.309-3.373-4.808-6.299-8.395-8.396c-0.7-1.049-1.399-2.099-2.1-3.148c1.748-2.099,3.499-4.198,5.247-6.297
			c8.044,7.346,16.091,14.693,24.136,22.038v2.099c-5.538,7.525-13.154,11.467-26.234,11.543
			c-8.744-8.044-17.492-16.091-26.235-24.136c-0.351-0.699-0.7-1.399-1.05-2.099c10.493-12.592,20.988-25.187,31.482-37.778
			C691.921,141.996,708.866,163.255,718.912,177.406z M669.59,127.035c-2.099,3.147-4.197,6.297-6.296,9.444
			c-1.05,0.699-2.099,1.399-3.148,2.099c-12.941-9.443-25.886-18.89-38.827-28.334c-4.198,5.946-8.396,11.895-12.594,17.84
			c-0.35,1.05-0.699,2.099-1.049,3.148c6.296,3.848,12.595,7.696,18.889,11.544c1.399-1.75,2.8-3.499,4.197-5.248
			c-3.846-2.448-7.696-4.897-11.543-7.346c-0.349-0.699-0.7-1.399-1.049-2.099c1.398-2.098,2.798-4.197,4.197-6.296
			c9.094,5.946,18.19,11.894,27.285,17.84c-2.948,10.003-11.56,14.277-15.742,23.086c-12.941-8.394-25.887-16.792-38.827-25.186
			c7.694-14.689,15.391-29.384,23.087-44.075C639.258,98.623,651.455,118.677,669.59,127.035z M608.725,87.158
			c0.7,0.349,1.398,0.699,2.099,1.049c-1.748,3.848-3.497,7.696-5.247,11.544c-16.939-3.498-27.549-17.165-46.174-18.89
			c-2.797,6.995-5.597,13.993-8.395,20.988c6.646,3.148,13.294,6.297,19.939,9.445c2.11-2.554,2.471-2.86,3.147-7.346
			c-4.547-1.749-9.095-3.499-13.643-5.247c1.05-2.798,2.099-5.597,3.149-8.395c10.143,4.197,20.288,8.396,30.432,12.592
			c-3.497,8.045-6.996,16.092-10.494,24.137c-1.05,0.699-2.099,1.399-3.148,2.099c-13.991-6.295-27.985-12.593-41.976-18.89
			c5.597-15.389,11.193-30.784,16.79-46.173C572.663,66.372,597.262,77.062,608.725,87.158z M486.994,47.28v-2.099
			c19.237,4.547,38.48,9.096,57.717,13.642c0.816,4.791-1.001,8.047-2.098,13.643c-16.09-3.847-32.184-7.696-48.273-11.543
			c-1.397,8.045-2.798,16.091-4.197,24.136c6.646,1.75,13.293,3.499,19.938,5.248c0.7-0.35,1.398-0.699,2.099-1.049
			c0.351-1.75,0.7-3.499,1.051-5.248v-1.049c-4.896-1.049-9.797-2.099-14.693-3.148c0.7-2.449,1.399-4.898,2.1-7.346v-2.099
			c10.842,2.449,21.689,4.897,32.531,7.346c-2.449,9.095-4.897,18.19-7.346,27.285c-15.39-3.148-30.785-6.297-46.174-9.445
			C482.097,79.463,484.546,63.37,486.994,47.28z M475.451,44.132h2.099c-0.35,4.197-0.7,8.396-1.05,12.593
			c-16.439-0.7-32.882-1.399-49.322-2.099v24.136c7.345,0.35,14.693,0.7,22.039,1.049v-7.346h-14.692v-9.445
			c0.35-0.35,0.699-0.699,1.05-1.049c10.143,1.049,20.289,2.099,30.432,3.148c3.341,3.49,1.515,19.963-1.049,25.186
			c-5.718,5.158-34.676,1.383-46.174,1.049c-0.699-16.789-1.399-33.583-2.099-50.372C435.526,40.811,461.025,38.048,475.451,44.132z
			 M626.564,169.011c9.646,7.368,23.574,15.355,29.384,26.235l5.247,5.247c-5.946,0.7-11.895,1.399-17.84,2.099
			c-40.994-31.436-77.192-61.794-134.324-78.705c-109.691-32.467-249.491,13.327-296.98,75.557
			c-5.946-0.699-11.894-1.399-17.84-2.098c25.085-39.856,102.433-76.854,155.312-90.249c19.587-2.798,39.18-5.597,58.767-8.396
			C508.689,98.454,570.553,126.228,626.564,169.011z M346.375,48.329c20.287-2.448,40.579-4.897,60.865-7.346
			c0.35,4.547,0.699,9.095,1.049,13.643c-15.739,2.099-31.483,4.197-47.223,6.296h-2.099c1.399,8.045,2.799,16.091,4.198,24.136
			c7.345-1.049,14.692-2.099,22.037-3.147v-7.347c-4.896,0.7-9.795,1.4-14.691,2.099c-0.7-1.749-1.399-3.498-2.099-5.247v-4.198
			c10.843-1.398,21.689-2.798,32.531-4.197h1.05c0.35,4.197,0.699,8.396,1.049,12.593v15.741
			c-15.04,2.099-30.084,4.197-45.125,6.296h-1.048c-3.499-16.089-6.998-32.183-10.495-48.273V48.329z M331.683,51.478h5.247
			c1.05,4.546,2.099,9.095,3.148,13.642c-15.389,4.547-30.784,9.095-46.173,13.643c2.798,7.695,5.597,15.392,8.396,23.086
			c6.995-2.448,13.993-4.897,20.988-7.346c-0.35-1.049-0.7-2.099-1.05-3.148c-0.7-1.049-1.398-2.099-2.098-3.148
			c-4.197,1.399-8.396,2.799-12.593,4.197c-1.399-2.797-2.799-5.596-4.198-8.395c10.843-3.498,21.688-6.996,32.532-10.494
			c2.449,8.744,4.897,17.491,7.346,26.235c-14.69,5.247-29.385,10.494-44.075,15.741c-6.646-15.04-13.294-30.084-19.939-45.125
			C291.827,59.211,315.868,59.206,331.683,51.478z M268.718,73.515c3.765,2.717,5.548,8.025,6.297,13.643
			c-13.713,5.03-32.39,13.237-41.977,23.086c3.148,5.597,6.297,11.194,9.445,16.791c1.399,1.049,2.799,2.099,4.198,3.148
			c5.247-2.798,10.495-5.597,15.741-8.395c1.691-3.435,1.27-2.122,1.049-6.296c-0.35-0.699-0.7-1.399-1.049-2.099
			c-4.547,2.099-9.096,4.198-13.642,6.296c-1.749-2.448-3.499-4.897-5.248-7.346c7.309-6.505,19.975-13.096,30.433-15.741
			c3.848,8.395,7.696,16.791,11.544,25.186c-13.642,7.345-27.287,14.692-40.927,22.038c-8.745-12.942-17.491-25.887-26.235-38.828
			c-0.7-0.7-1.399-1.4-2.099-2.1C233.737,93.104,251.23,83.309,268.718,73.515z M206.804,109.195
			c5.16,1.847,7.181,6.005,9.445,10.494c-11.192,8.744-22.389,17.491-33.581,26.235c-1.399,1.75-2.799,3.499-4.197,5.248
			c4.896,5.596,9.795,11.194,14.691,16.791c6.296-4.198,12.593-8.396,18.889-12.593c-1.049-2.098-2.099-4.197-3.148-6.296
			c-5.54,1.544-8.586,4.372-11.544,8.396h-2.098c-1.749-1.399-3.499-2.799-5.248-4.197v-2.099
			c8.395-6.995,16.792-13.993,25.186-20.988c5.597,7.345,11.194,14.693,16.791,22.038c-8.744,6.995-17.491,13.993-26.235,20.988
			c-3.147,3.148-6.297,6.297-9.445,9.445c-7.346-7.695-14.692-15.392-22.037-23.087c-4.197-4.197-8.396-8.396-12.593-12.593
			C175.443,132.817,191.856,122.232,206.804,109.195z M153.284,154.319c4.635,2.086,7.97,5.229,10.494,9.444
			c-4.896,5.247-9.795,10.495-14.691,15.742c-2.094,3.318-1.978,0.998-5.248,0c-2.308,7.936-3.308,13.38-10.494,18.889v2.099
			c8.481,10.451,19.528,12.358,26.235,23.087c-1.05,1.399-2.099,2.799-3.148,4.197v2.1c-12.592-8.745-25.187-17.492-37.779-26.235
			l-3.148-4.198C128.098,184.403,140.692,169.359,153.284,154.319z M149.087,203.641c-1.749-1.05-3.499-2.099-5.248-3.148
			c0.35-1.399,0.7-2.798,1.05-4.197C146.288,198.743,147.688,201.193,149.087,203.641z M108.16,208.888
			c5.252,1.212,7.553,2.984,10.494,6.297c0.7,0.35,1.4,0.699,2.099,1.049c-8.045,13.99-16.092,27.985-24.136,41.976
			c7.345,3.847,14.692,7.696,22.037,11.543c3.498-6.296,6.996-12.593,10.494-18.889v-1.049c-2.448-1.05-4.897-2.099-7.346-3.148
			c-1.749,3.848-3.499,7.696-5.247,11.543c-2.448-0.35-4.897-0.699-7.346-1.049c-0.7-1.05-1.4-2.099-2.099-3.148
			c5.247-9.094,10.494-18.19,15.741-27.285c0.7-0.35,1.4-0.699,2.099-1.049c6.995,4.547,13.993,9.095,20.988,13.643
			c0.35,1.398,0.699,2.799,1.049,4.197c-7.345,12.941-14.692,25.887-22.037,38.828c-15.04-6.645-30.084-13.293-45.125-19.939
			C84.841,241.222,100.872,227.462,108.16,208.888z M74.579,270.802c4.547,1.399,9.095,2.799,13.643,4.198
			c-5.247,15.739-10.495,31.483-15.742,47.223c7.695,2.098,15.393,4.198,23.087,6.296c2.099-7.345,4.197-14.693,6.296-22.038
			c-1.05-0.35-2.099-0.699-3.148-1.049c-6.08,1.546-7.125,7.953-8.396,13.643c-2.448-0.35-4.897-0.7-7.346-1.05
			c-1.979-10.784,6.513-23.169,9.445-33.581c8.394,3.498,16.792,6.996,25.186,10.494c-4.547,15.04-9.095,30.084-13.642,45.125
			c-16.089-4.197-32.184-8.396-48.272-12.593C61.986,308.583,68.283,289.69,74.579,270.802z M52.542,337.964
			c4.896,0.7,9.795,1.4,14.691,2.099c-2.449,16.089-4.897,32.183-7.346,48.272c8.044,0.7,16.091,1.4,24.136,2.1
			c0.699-7.346,1.399-14.693,2.099-22.038h-7.346c-0.35,4.547-0.699,9.095-1.049,13.643c-0.7,0.35-1.399,0.699-2.099,1.049
			c-2.448-0.35-4.897-0.699-7.346-1.049c0.1-12.849,1.927-23.748,5.247-33.581c8.744,1.749,17.491,3.498,26.235,5.247
			c0.35,0.35,0.699,0.7,1.049,1.05c-2.099,15.389-4.197,30.784-6.296,46.173c-16.789-1.049-33.583-2.099-50.372-3.148
			C46.944,377.844,49.744,357.901,52.542,337.964z M44.146,407.225c3.848,0.35,7.696,0.7,11.543,1.049
			c5.671,6.211,3.403,38.238,3.148,48.273c8.394-0.699,16.791-1.398,25.186-2.098c-0.35-6.996-0.7-13.994-1.05-20.988
			c-2.448-0.35-4.897-0.701-7.346-1.049c-0.35,0.699-0.7,1.398-1.049,2.098c0.35,4.547,0.699,9.094,1.049,13.643h-9.444
			c-0.35-11.193-0.7-22.389-1.05-33.582h28.334c0.7,16.089,1.399,32.183,2.099,48.273c-16.439,1.748-32.883,3.498-49.322,5.246
			C41.655,451.992,41.625,425.037,44.146,407.225z M47.294,477.535c1.749-0.35,3.499-0.699,5.248-1.049h8.395
			c3.497,15.738,6.996,31.482,10.494,47.223c7.695-2.1,15.392-4.197,23.087-6.297c-1.399-7.346-2.799-14.693-4.198-22.037
			c-1.748,0.35-3.498,0.699-5.247,1.049c-3.282,3.547-0.765,9.537,0,15.742c-2.799,0.699-5.597,1.398-8.395,2.098
			c-2.448-10.842-4.898-21.689-7.346-32.531c9.095-1.748,18.19-3.5,27.285-5.246h1.049c3.498,15.389,6.997,30.783,10.494,46.174
			c-16.089,4.896-32.183,9.795-48.272,14.691C55.69,517.414,51.492,497.473,47.294,477.535z M64.085,548.895v-3.148
			c4.547-1.049,9.095-2.1,13.643-3.148c5.246,13.992,10.495,27.986,15.741,41.977c0.7,0.701,1.399,1.398,2.099,2.098
			c6.645-3.146,13.293-6.295,19.938-9.443c2.916-4.098-3.195-12.566-5.247-18.889c-3.881-1.549-3.224-1.047-8.395,0
			c2.099,4.896,4.198,9.795,6.296,14.691c-1.748,1.049-3.498,2.1-5.247,3.148h-4.198c-4.197-10.145-8.396-20.289-12.593-30.434
			c8.045-3.148,16.092-6.297,24.136-9.445c7.644,3.602,19.835,34.705,20.988,44.076c-14.341,7.344-28.685,14.691-43.025,22.037
			C77.002,588.707,70.571,566.605,64.085,548.895z M126,662.23c-11.192-17.139-22.388-34.281-33.581-51.422
			c4.197-2.098,8.396-4.197,12.593-6.295c6.683,13.195,15.954,31.059,27.285,39.877c5.247-3.498,10.495-6.998,15.741-10.494
			c1.05-1.4,2.099-2.799,3.148-4.197c-3.848-5.598-7.696-11.195-11.543-16.791c-1.749,0.35-3.499,0.699-5.247,1.049
			c-0.699,1.049-1.399,2.1-2.099,3.148c2.798,3.848,5.597,7.697,8.395,11.543c-2.448,1.748-4.898,3.5-7.346,5.248
			c-5.946-8.395-11.894-16.793-17.84-25.186c-0.35-1.051-0.699-2.1-1.049-3.148c8.045-4.549,16.091-9.096,24.136-13.643
			c9.094,12.941,18.19,25.887,27.285,38.828c-12.243,9.443-24.487,18.889-36.729,28.334C128.099,660.131,127.049,661.182,126,662.23
			z M175.322,712.602c-14.547-10.617-32.851-27.27-41.976-43.025c1.749-1.4,3.498-2.801,5.247-4.199
			c1.749-1.746,3.499-3.498,5.247-5.246c8.359,12.066,20.424,25.23,32.532,33.58v2.1c5.596-5.596,11.194-11.193,16.791-16.791
			v-2.098c-4.547-4.896-9.095-9.795-13.643-14.691h-3.148c-1.049,1.398-2.099,2.797-3.148,4.197
			c3.147,3.848,6.296,7.697,9.444,11.543c-1.049,1.748-2.099,3.5-3.148,5.248c-0.699,0.348-1.398,0.699-2.098,1.049
			c-7.695-7.346-15.393-14.693-23.087-22.037v-2.1c6.296-5.945,12.594-11.893,18.89-17.84c14.563,5.777,20.517,24.588,34.63,31.482
			c-9.793,12.24-19.589,24.488-29.383,36.729C177.421,711.201,176.371,711.9,175.322,712.602z M182.667,719.947
			c2.099-3.148,4.198-6.297,6.296-9.445c1.049-0.699,2.099-1.398,3.148-2.098c13.291,9.443,26.586,18.891,39.877,28.332
			c4.197-6.994,8.396-13.992,12.593-20.986c-6.296-3.848-12.593-7.697-18.89-11.543c-0.7,0.348-1.399,0.699-2.099,1.049
			c-0.35,1.398-0.699,2.797-1.049,4.197c3.498,2.447,6.997,4.896,10.494,7.346l1.05,2.1c-1.399,2.098-2.798,4.197-4.198,6.297
			c-8.044-4.898-16.091-9.797-24.136-14.693c-1.399-1.748-2.798-3.498-4.197-5.246c5.596-6.996,11.194-13.992,16.79-20.988
			c13.292,8.742,26.586,17.49,39.877,26.234c-8.394,14.34-16.792,28.686-25.186,43.025
			C226.847,751.926,183.7,723.217,182.667,719.947z M243.533,760.873c-0.7-1.049-1.399-2.098-2.099-3.148
			c1.398-2.797,2.799-5.596,4.198-8.395c9.725-3.295,34.795,12.646,46.174,17.84c2.798-7.695,5.597-15.393,8.395-23.086
			c-6.646-2.799-13.293-5.598-19.938-8.396c-0.7,2.447-1.4,4.898-2.099,7.346c3.848,1.398,7.695,2.799,11.543,4.199
			c0.35,1.398,0.7,2.797,1.049,4.197c-0.699,1.748-1.399,3.498-2.099,5.246c-10.144-4.197-20.29-8.395-30.433-12.592
			c0.143-7.414,8.155-18.996,12.593-26.234c13.991,6.293,27.985,12.592,41.976,18.887c-5.247,15.041-10.494,30.086-15.741,45.125
			C293.261,786.494,251.109,763.807,243.533,760.873z M365.263,801.801c-19.586-4.547-39.179-9.096-58.766-13.643
			c-0.35-0.35-0.699-0.701-1.049-1.049c1.399-4.197,2.799-8.396,4.198-12.594c16.089,3.848,32.183,7.697,48.272,11.543
			c1.399-8.043,2.799-16.09,4.198-24.135c-7.345-1.4-14.692-2.801-22.038-4.199c-0.35,2.1-0.7,4.199-1.049,6.297
			c4.897,1.049,9.795,2.1,14.692,3.148c-0.699,2.449-1.399,4.896-2.099,7.346v2.1c-10.843-2.449-21.689-4.898-32.532-7.346
			c2.448-9.094,4.897-18.191,7.346-27.285c15.39,3.148,30.784,6.297,46.174,9.445C370.161,768.219,367.711,785.012,365.263,801.801z
			 M375.757,803.9c-0.35-0.352-0.7-0.701-1.049-1.051c0.699-3.846,1.399-7.695,2.099-11.543c6.272-5.195,35.715,0.76,48.272,1.049
			c0.35-8.045,0.7-16.092,1.05-24.135c-7.695-0.352-15.393-0.701-23.087-1.051c-0.35,1.398-0.699,2.799-1.049,4.197
			c0.35,1.051,0.699,2.1,1.049,3.148h14.692v9.445c-10.493-0.701-20.989-1.4-31.482-2.1c-3.085-3.207-1.479-19.912,1.05-25.186
			c6.439-5.695,35.237-0.32,47.223,0c0.35,16.439,0.699,32.883,1.05,49.322C415.637,805.299,395.694,804.6,375.757,803.9z
			 M445.018,805.998v-13.643c15.39-2.098,30.784-4.197,46.174-6.297h2.1c-1.503-7.543-2.121-18.967-6.297-24.135
			c-6.646,1.049-13.293,2.098-19.938,3.146v7.348c5.246-0.352,10.494-0.701,15.741-1.051c0.349,2.799,0.7,5.598,1.049,8.396
			c-10.493,1.398-20.989,2.797-31.481,4.197h-1.05c-1.049-9.445-2.098-18.891-3.148-28.334c15.74-2.1,31.484-4.197,47.224-6.297
			c3.498,16.09,6.996,32.184,10.494,48.273C491.944,805,464.19,806.32,445.018,805.998z M515.328,795.504
			c-1.049-3.148-2.098-6.297-3.148-9.445v-4.197c15.39-4.547,30.784-9.096,46.174-13.641c-3.148-7.697-6.297-15.393-9.444-23.088
			c-6.646,2.1-13.293,4.197-19.938,6.297v5.246c5.374,2.174,10.167-0.131,16.79-2.098c0.7,1.748,1.398,3.498,2.099,5.246v4.197
			c-10.493,3.148-20.989,6.297-31.482,9.445c-2.448-9.094-4.897-18.189-7.346-27.285c13.991-4.896,27.986-9.795,41.977-14.691
			c9.941,3.932,18.208,34.869,22.037,45.125C562.559,786.09,532.16,794.664,515.328,795.504z M634.961,745.133
			c-17.489,9.443-34.981,18.889-52.472,28.334c-2.099-3.848-4.196-7.697-6.296-11.543v-1.051
			c13.642-6.994,27.285-13.992,40.927-20.986c0.699-1.051,1.398-2.1,2.099-3.15c-3.498-5.945-6.996-11.893-10.494-17.838
			c-1.049-0.701-2.098-1.4-3.148-2.1c-5.945,3.848-11.893,7.697-17.84,11.543c0.7,1.748,1.399,3.5,2.1,5.248
			c4.547-2.1,9.095-4.199,13.642-6.297c1.749,2.447,3.499,4.896,5.247,7.346c-9.793,5.246-19.59,10.494-29.383,15.74
			c-3.848-8.043-7.695-16.09-11.544-24.135c12.592-7.695,25.188-15.393,37.778-23.088c13.774,4.785,19.607,29.006,29.385,38.828
			V745.133z M643.355,738.836c-2.448-3.148-4.898-6.295-7.346-9.445v-2.098c11.542-9.094,23.087-18.189,34.631-27.285
			c1.049-1.398,2.097-2.799,3.147-4.197c-14.39-11.811-18.914-22.441-33.581-2.1c1.049,1.398,2.1,2.799,3.148,4.199
			c4.896-2.799,9.795-5.598,14.691-8.395v2.098c1.398,1.398,2.799,2.799,4.197,4.197c-8.394,6.996-16.791,13.994-25.186,20.988
			h-1.049c-4.548-6.646-9.095-13.293-13.643-19.938c-0.7-0.701-1.399-1.4-2.099-2.1c11.542-10.143,23.088-20.289,34.63-30.434
			c12.291,5.867,27.699,24.906,35.68,35.68C679.266,714.918,659.394,728.779,643.355,738.836z M697.924,692.662
			c-4.277-2.729-6.895-4.922-9.444-9.443c10.144-12.242,20.289-24.49,30.433-36.729c-6.296-4.898-12.593-9.797-18.889-14.693
			c-3.498,4.547-6.997,9.096-10.494,13.643c-1.05,1.051-2.1,2.1-3.148,3.148c1.049,1.398,2.099,2.797,3.148,4.197h2.098
			c2.798-3.498,5.598-6.996,8.396-10.494c4.782,1.412,5.897,2.869,8.395,6.297c-7.346,8.045-14.693,16.092-22.037,24.137
			c-5.946-5.248-11.895-10.494-17.84-15.742c-0.7-1.049-1.399-2.098-2.099-3.146c9.792-11.893,19.591-23.789,29.383-35.68
			c12.591,8.393,25.188,16.791,37.778,25.184c1.05,1.398,2.1,2.799,3.148,4.199C725.73,662.953,712.911,681.207,697.924,692.662z
			 M744.097,638.094c-4.318-0.217-6.23-3.279-11.542-5.246c-0.71-9.318,15.451-32.871,22.037-40.928
			c0.35-1.049,0.7-2.098,1.049-3.148c-7.345-3.846-14.692-7.695-22.037-11.543c-3.498,6.646-6.995,13.293-10.494,19.939
			c2.448,1.049,4.897,2.098,7.346,3.146c2.1-3.498,4.198-6.996,6.297-10.492v-2.1c2.798,1.748,5.598,3.498,8.396,5.246
			c-5.247,9.096-10.494,18.191-15.741,27.285c-6.956-0.074-17.156-9.336-24.137-13.643c7.345-13.99,14.692-27.986,22.038-41.977
			c15.04,7.346,30.085,14.693,45.124,22.037C762.988,603.813,753.541,620.955,744.097,638.094z M777.68,576.18
			c-3.849-1.4-7.697-2.801-11.545-4.199c-4.492-6.512,12.102-34.836,13.643-47.223c-7.346-2.098-14.693-4.197-22.037-6.295
			c-2.448,7.344-4.898,14.691-7.346,22.037c1.747,0.699,3.498,1.398,5.246,2.098h1.051c1.747-4.896,3.498-9.795,5.246-14.691
			c2.799,0.699,5.598,1.398,8.396,2.1c-3.149,10.143-6.297,20.289-9.445,30.432c-9.335,1.635-18.154-5.732-27.285-8.395
			c4.896-15.041,9.796-30.084,14.691-45.125c16.09,3.848,32.183,7.695,48.272,11.545C792.784,539.996,783.236,557.066,777.68,576.18
			z M799.717,509.018c-3.848-0.701-7.697-1.4-11.544-2.1c-5.816-6.984,3.568-35.951,4.198-48.271
			c-7.696-1.051-15.392-2.1-23.088-3.148c-1.049,4.896-2.099,9.795-3.148,14.691c-0.04,7.553,0.09,7.205,5.248,9.443
			c2.674-3.305,3.276-9.674,3.147-15.74c3.498,0.35,6.996,0.699,10.495,1.049c-1.749,10.844-3.5,21.689-5.248,32.533
			c-0.35,0.348-0.699,0.699-1.049,1.049c-9.095-1.748-18.19-3.498-27.285-5.248c2.099-15.738,4.197-31.482,6.297-47.223
			c16.438,1.051,32.883,2.1,49.322,3.148c0.349,0.35,0.7,0.699,1.049,1.049C805.314,469.838,802.514,489.43,799.717,509.018z
			 M795.519,439.758c-0.7-16.09-1.399-32.184-2.099-48.274h-22.037c-1.049,0.35-2.1,0.7-3.148,1.05
			c0.349,7.345,0.7,14.692,1.049,22.037h7.346V398.83h9.445c0.35,11.193,0.699,22.389,1.049,33.583
			c-9.442-0.352-18.89-0.701-28.334-1.051c-0.699-15.74-1.397-31.483-2.098-47.223c14.34-1.749,28.685-3.499,43.025-5.247h6.296
			c1.648,15.098,8.534,43.102,2.099,58.767C805.604,440.166,800.889,440.072,795.519,439.758z M421.931,326.421h35.68v-55.619
			h-35.68V326.421z M429.277,278.149h20.988v40.927h-20.988V278.149z"/>
	</g>
</g>
</svg>
